<svg xmlns="http://www.w3.org/2000/svg" viewBox="0 0 250.12 38.4"><title>Asset 27</title><g id="Layer_2" data-name="Layer 2"><g id="Layer_1-2" data-name="Layer 1"><path d="M27.84,20.48c0,9.57-6.59,15.39-13.09,15.39-5,0-7.71-1.71-8.7-2.48L6,37.27l-3-4.2L0,37.4.72,4.74,3.38,9.16l3.3-4.42,0,3.16c1-1.31,3-2.71,7.54-2.53C22.56,5.69,27.84,10.87,27.84,20.48Zm-5.73.23c0-5.28-3.2-10.06-7.94-10.06-4.51,0-6.68,1.71-7.67,3.07L6.18,27.3c1,.81,3.52,2.39,8.75,2.39C18.59,29.69,22.11,25.67,22.11,20.71Z" style="fill:#fff"/><path d="M55.81,14.39l3.38-3.7-.31,25.23-3.07-4-3.07,4,0-6.55C51,32,47.69,35.92,43,35.92c-5.19,0-9.43-4.52-9.43-8.53s.23-16.56.23-16.56l3.52,4.65L41,10.83s-.23,8-.37,11.87c-.13,3.38.14,6.76,3.39,6.76,3.52,0,6.86-3.11,8.66-5.14l-.09-13.63Z" style="fill:#fff"/><path d="M91.72,24.41c0,6.63-5.19,12-12.63,12-8.21,0-13.63-3.92-13.63-11.86s7.27-12.41,13.4-12.41C85.77,12.14,91.72,17.78,91.72,24.41Zm-6.5.05a6.7,6.7,0,0,0-6.54-6.86c-4.33,0-6.68,4-6.68,7,0,3.42,3.25,6.27,7,6.27S85.22,27,85.22,24.46Z" style="fill:#fff"/><path d="M122.08,11.6l-3.2,2.52,3.2,3.52L109,17.51c0,.94,0,1.76,0,2.34-.09,3.84-.72,10.07,3,10.29,3.93.27,3.48-6.68,3.48-6.68l2.25,3.3,2.8-3.12c0,5.24-1.31,12.5-9.11,12.5-7,0-8.49-5.46-8.8-9.65-.14-1.49-.09-5.06,0-9.07l-7.13-.09,3-3.12-2.8-2.43,7.09,0c.18-5.5.4-10.33.4-10.33l2.94,3.88,3.47-3.75s-.18,5.15-.36,10.16Z" style="fill:#fff"/><path d="M152.27,24.41c0,6.63-5.19,12-12.64,12-8.21,0-13.62-3.92-13.62-11.86s7.26-12.41,13.4-12.41C146.31,12.14,152.27,17.78,152.27,24.41Zm-6.5.05a6.7,6.7,0,0,0-6.54-6.86c-4.34,0-6.68,4-6.68,7,0,3.42,3.25,6.27,6.95,6.27S145.77,27,145.77,24.46Z" style="fill:#fff"/><path d="M185.61,18.77l-4.88-1.26-1.31,5.1s-1.75-4-4.42-4c-1.62,0-6.36,2.17-10.19,5.37l-.27,13.13-3-2.57-2.76,2.57-.31-25.89,3,2.66,3.61-2.57L165,16.92c3.2-2.44,7.89-5.14,13-5.14C183.71,11.78,185.61,18.77,185.61,18.77Z" style="fill:#fff"/><path d="M193.36,17.1l4-5.1-.9,23.69-3.52-4L189.53,36l-.14-23.87Zm4-9.38a3.91,3.91,0,0,1-7.8,0,3.91,3.91,0,0,1,7.8,0Z" style="fill:#fff"/><path d="M232.07,34.07l-3.61,1.08,2,3.25s-6.31-.5-7-2.66a11.8,11.8,0,0,1-.46-2.08,14,14,0,0,1-7.21,2.53c-9.93.58-13.18-2-12.77-7.76.27-4.29,5.82-7,12.9-7A15.06,15.06,0,0,1,222.51,23c-.23-4.74-1.67-6-5.55-6-4.24,0-10.56,3.11-10.56,3.11l1.76-4.19-5.73,1s6.18-6,14.84-6,12,5.23,12,13.45c0,6-1.17,7.44-.27,8A20.15,20.15,0,0,0,232.07,34.07Zm-9.38-4.34c-.05-.94-.09-1.89-.09-2.79a25,25,0,0,0-5.82-.45c-2.89.13-5.55.76-5.87,2.21-.27,1.26.14,2.66,5.24,2.79A13.75,13.75,0,0,0,222.69,29.73Z" style="fill:#fff"/><path d="M246.37,32.8l3.75,3.25s-10.15,1.4-11.69-.22S238.88,0,238.88,0l3.3,4.15L246.6.45l-1.54,29.33h4.83Z" style="fill:#fff"/></g></g></svg>