<svg xmlns="http://www.w3.org/2000/svg" viewBox="0 0 502.86 77.18"><title>Asset 32</title><g id="Layer_2" data-name="Layer 2"><g id="Layer_1-2" data-name="Layer 1"><path d="M56,41.18C56,60.4,42.72,72.1,29.66,72.1c-10,0-15.51-3.44-17.51-5L12,74.92,5.9,66.48,0,75.19,1.45,9.52,6.8,18.41l6.62-8.89-.09,6.35c1.91-2.63,6.08-5.44,15.15-5.08C45.35,11.43,56,21.86,56,41.18Zm-11.52.45C44.44,31,38,21.4,28.48,21.4c-9.07,0-13.42,3.45-15.42,6.17l-.63,27.3c1.9,1.63,7.07,4.81,17.59,4.81C37.37,59.68,44.44,51.61,44.44,41.63Z" style="fill:#0b0"/><path d="M112.2,28.93,119,21.5l-.63,50.7-6.17-8.08L106,72.2,105.94,59C102.58,64.21,95.87,72.2,86.53,72.2c-10.43,0-19-9.07-19-17.15S68,21.77,68,21.77l7.07,9.34,7.26-9.34s-.45,16.14-.73,23.85c-.27,6.8.28,13.61,6.81,13.61,7.07,0,13.78-6.26,17.41-10.34l-.18-27.39Z" style="fill:#0b0"/><path d="M184.4,49.07C184.4,62.4,174,73.19,159,73.19c-16.5,0-27.39-7.89-27.39-23.85s14.6-24.94,26.94-24.94C172.43,24.4,184.4,35.73,184.4,49.07Zm-13.06.09c0-7.08-5.35-13.79-13.15-13.79-8.71,0-13.43,8-13.43,14,0,6.89,6.53,12.61,14,12.61S171.34,54.33,171.34,49.16Z" style="fill:#0b0"/><path d="M245.44,23.31,239,28.39l6.44,7.07-26.3-.27c-.09,1.91-.09,3.54-.09,4.72-.18,7.71-1.45,20.22,6,20.68,7.89.54,7-13.43,7-13.43l4.53,6.62,5.63-6.25c0,10.52-2.63,25.12-18.32,25.12-14.06,0-17.06-11-17.69-19.41-.27-3-.18-10.16,0-18.23l-14.33-.18,6.08-6.26-5.63-4.9,14.24-.09c.37-11.06.82-20.77.82-20.77l5.89,7.8,7-7.53s-.36,10.34-.73,20.41Z" style="fill:#06460d"/><path d="M306.12,49.07c0,13.33-10.43,24.12-25.39,24.12-16.51,0-27.39-7.89-27.39-23.85s14.6-24.94,26.93-24.94C294.15,24.4,306.12,35.73,306.12,49.07Zm-13.06.09c0-7.08-5.35-13.79-13.15-13.79-8.71,0-13.42,8-13.42,14,0,6.89,6.53,12.61,14,12.61S293.06,54.33,293.06,49.16Z" style="fill:#06460d"/><path d="M373.15,37.73l-9.79-2.54-2.63,10.25s-3.54-8-8.89-8c-3.27,0-12.79,4.35-20.5,10.79l-.54,26.39-6-5.17-5.53,5.17-.64-52.06,6,5.36,7.26-5.17L331.7,34c6.44-4.9,15.88-10.34,26.13-10.34C369.34,23.67,373.15,37.73,373.15,37.73Z" style="fill:#06460d"/><path d="M388.76,34.37l8-10.24-1.82,47.61-7.07-8.07-6.8,8.71-.28-48Zm8-18.86a7.86,7.86,0,0,1-15.69,0c0-4,3.53-7.26,7.8-7.26S396.74,11.52,396.74,15.51Z" style="fill:#06460d"/><path d="M466.58,68.48l-7.26,2.17,4.08,6.53s-12.69-1-14.15-5.35a25,25,0,0,1-.9-4.17,28.09,28.09,0,0,1-14.52,5.08c-19.95,1.18-26.48-4.08-25.66-15.6.54-8.62,11.7-14.15,25.94-14.15a30.21,30.21,0,0,1,13.24,3.27c-.45-9.53-3.36-12.07-11.16-12.07-8.52,0-21.22,6.26-21.22,6.26L418.51,32,407,34.1s12.42-12,29.84-12S461,32.65,461,49.16c0,12.15-2.35,15-.54,16.14A39.88,39.88,0,0,0,466.58,68.48Zm-18.87-8.71c-.09-1.9-.18-3.81-.18-5.62a50.42,50.42,0,0,0-11.7-.91c-5.8.27-11.16,1.54-11.79,4.44-.54,2.54.27,5.36,10.52,5.63A27.81,27.81,0,0,0,447.71,59.77Z" style="fill:#06460d"/><path d="M495.33,65.94l7.53,6.53s-20.41,2.81-23.49-.46.91-72,.91-72l6.62,8.34L495.79.91l-3.09,59h9.71Z" style="fill:#06460d"/></g></g></svg>