<svg xmlns="http://www.w3.org/2000/svg" viewBox="0 0 155.96 36.01"><title>Asset 26</title><g id="Layer_2" data-name="Layer 2"><g id="Layer_1-2" data-name="Layer 1"><path d="M27.84,19.09c0,9.56-6.59,15.38-13.09,15.38-5,0-7.71-1.71-8.7-2.48L6,35.87l-3-4.2L0,36,.72,3.34,3.38,7.76l3.3-4.42,0,3.16c1-1.31,3-2.71,7.54-2.53C22.56,4.29,27.84,9.48,27.84,19.09Zm-5.73.22c0-5.28-3.2-10.06-7.94-10.06C9.66,9.25,7.49,11,6.5,12.32L6.18,25.9c1,.81,3.52,2.39,8.75,2.39C18.59,28.29,22.11,24.27,22.11,19.31Z" style="fill:#fff"/><path d="M55.81,13l3.38-3.7-.31,25.23-3.07-4-3.07,4,0-6.55c-1.67,2.58-5,6.55-9.66,6.55-5.19,0-9.43-4.52-9.43-8.53s.23-16.56.23-16.56l3.52,4.65L41,9.43s-.23,8-.37,11.87c-.13,3.38.14,6.76,3.39,6.76,3.52,0,6.86-3.11,8.66-5.14L52.56,9.29Z" style="fill:#fff"/><path d="M91.72,23c0,6.63-5.19,12-12.63,12-8.21,0-13.63-3.92-13.63-11.86s7.27-12.41,13.4-12.41C85.77,10.74,91.72,16.38,91.72,23Zm-6.5,0a6.7,6.7,0,0,0-6.54-6.86c-4.33,0-6.68,4-6.68,7,0,3.43,3.25,6.27,7,6.27S85.22,25.63,85.22,23.06Z" style="fill:#fff"/><path d="M121.22,15.7l4-5.1-.91,23.69-3.52-4-3.38,4.33-.14-23.87Zm4-9.38a3.91,3.91,0,0,1-7.81,0,3.92,3.92,0,0,1,7.81,0Z" style="fill:#fff"/><path d="M156,10.2l-3.2,2.52,3.2,3.52-13.08-.13c0,.95,0,1.76,0,2.34-.08,3.84-.72,10.07,3,10.29,3.93.27,3.48-6.68,3.48-6.68l2.25,3.3,2.8-3.12c0,5.24-1.31,12.5-9.11,12.5-7,0-8.49-5.46-8.8-9.65-.14-1.49-.09-5.06,0-9.07l-7.13-.09,3-3.12-2.8-2.43,7.09-.05C136.79,4.83,137,0,137,0L140,3.88,143.42.14s-.18,5.14-.36,10.15Z" style="fill:#fff"/></g></g></svg>