<svg xmlns="http://www.w3.org/2000/svg" viewBox="0 0 243.31 42.55"><title>Asset 21</title><g id="Layer_2" data-name="Layer 2"><g id="Layer_1-2" data-name="Layer 1"><path d="M27.84,19.09c0,9.56-6.59,15.38-13.09,15.38-5,0-7.71-1.71-8.7-2.48L6,35.87l-3-4.2L0,36,.72,3.34,3.38,7.76l3.3-4.42,0,3.16c1-1.31,3-2.71,7.54-2.53C22.56,4.29,27.84,9.47,27.84,19.09Zm-5.73.22c0-5.28-3.2-10.06-7.94-10.06C9.66,9.25,7.49,11,6.5,12.32L6.18,25.9c1,.81,3.52,2.39,8.75,2.39C18.59,28.29,22.11,24.27,22.11,19.31Z" style="fill:#fff"/><path d="M55.81,13l3.38-3.7-.31,25.23-3.07-4-3.07,4,0-6.55c-1.67,2.58-5,6.55-9.66,6.55-5.19,0-9.43-4.52-9.43-8.53s.23-16.56.23-16.56l3.52,4.65L41,9.43s-.23,8-.37,11.87c-.13,3.38.14,6.76,3.39,6.76,3.52,0,6.86-3.11,8.66-5.14L52.56,9.29Z" style="fill:#fff"/><path d="M91.72,23c0,6.63-5.19,12-12.63,12-8.21,0-13.63-3.92-13.63-11.86s7.27-12.41,13.4-12.41C85.77,10.74,91.72,16.38,91.72,23Zm-6.5,0a6.7,6.7,0,0,0-6.54-6.86c-4.33,0-6.68,4-6.68,7,0,3.43,3.25,6.27,7,6.27S85.22,25.63,85.22,23.06Z" style="fill:#fff"/><path d="M101.78,15.7l4-5.1-.9,23.69-3.52-4-3.39,4.33-.13-23.87Zm4-9.38a3.91,3.91,0,0,1-7.81,0,3.92,3.92,0,0,1,7.81,0Z" style="fill:#fff"/><path d="M141.89,25.9a64.31,64.31,0,0,1,0,8.66l-3.61-5.46-4.11,5.55s1.49-16.24-5-16.24c-3.34,0-7,2.26-8.75,3.52l-.59,12.5-3.52-4.65-4,4.42.41-24.09,4,5.59L121,10.6l-.18,4.2c1.85-1.17,6-3.52,9.66-3.52C139.68,11.28,141.57,20.35,141.89,25.9Z" style="fill:#fff"/><path d="M178.3,9.7s0,17.69-.45,21.84c-.68,5.91-3.66,11-15.12,11a17.46,17.46,0,0,1-14.53-8l4.74,1.72-.59-5s3.75,5,9.7,5,8.85-1.22,9.43-7a20.6,20.6,0,0,1-10,2.35c-9.7.27-14.12-4.6-14.12-10.65,0-7.9,9.07-9.75,15.25-9.52a19,19,0,0,1,9.21,3.16c0-2.89-.1-4.92-.1-4.92l3.34,3.47ZM161.65,26.44a37.51,37.51,0,0,0,10.1-1.31c.1-2,.1-4.1.14-6.09a33.36,33.36,0,0,0-10-1.8c-3.11,0-7.53,1.85-7.53,4S157,26.44,161.65,26.44Z" style="fill:#fff"/><path d="M208.57,15.7l4-5.1-.91,23.69-3.51-4-3.39,4.33-.13-23.87Zm4-9.38a3.91,3.91,0,0,1-7.81,0,3.92,3.92,0,0,1,7.81,0Z" style="fill:#fff"/><path d="M243.31,10.2l-3.21,2.52,3.21,3.52-13.09-.13c0,.95,0,1.76,0,2.34-.09,3.84-.72,10.07,3,10.29,3.93.27,3.48-6.68,3.48-6.68l2.25,3.3,2.8-3.12c0,5.24-1.31,12.5-9.11,12.5-7,0-8.48-5.46-8.8-9.65-.14-1.49-.09-5.06,0-9.07l-7.13-.09,3-3.12-2.79-2.43,7.08-.05c.18-5.5.41-10.33.41-10.33l2.93,3.88L230.76.13s-.18,5.15-.36,10.16Z" style="fill:#fff"/></g></g></svg>