<svg xmlns="http://www.w3.org/2000/svg" viewBox="0 0 145.14 145.14"><title>Asset 15</title><g id="Layer_2" data-name="Layer 2"><g id="Layer_1-2" data-name="Layer 1"><path d="M72.57,145.14a72.57,72.57,0,1,1,72.57-72.57A72.65,72.65,0,0,1,72.57,145.14ZM72.57,12a60.57,60.57,0,1,0,60.57,60.57A60.64,60.64,0,0,0,72.57,12Z" style="fill:#062d0d"/><polygon points="90.58 112.85 90.58 112.85 54.76 112.85 63.78 103.6 81.56 103.6 90.58 112.85" style="fill:#062d0d"/><path d="M105.87,93.16H39.35V49.05h66.52Zm1.19-50.87H38.16A4.77,4.77,0,0,0,33.42,47V96.6a4.76,4.76,0,0,0,4.74,4.74h68.9a4.75,4.75,0,0,0,4.74-4.74V47a4.76,4.76,0,0,0-4.74-4.75Z" style="fill:#062d0d"/></g></g></svg>