<svg xmlns="http://www.w3.org/2000/svg" viewBox="0 0 145.14 145.14"><title>Asset 16</title><g id="Layer_2" data-name="Layer 2"><g id="Layer_1-2" data-name="Layer 1"><path d="M73.23,145.14a72.57,72.57,0,1,1,71.91-73.22A72.66,72.66,0,0,1,73.23,145.14ZM72,12a60.57,60.57,0,1,0,61.11,60A60.65,60.65,0,0,0,72,12Z" style="fill:#062d0d"/><path d="M103.82,58.06C101.45,46,86.6,38.49,70.66,39.26c-17.51.85-30,12.38-31.43,28.94s7,31,14.8,37,15.24,8.43,18.75,4.26c2.27-2.7-2.28-12.09-1.23-16.43s3.37-8.2,8.2-7.85S92,87.91,97,85C103.83,80.91,106.19,70.15,103.82,58.06ZM42.32,69.25a6.37,6.37,0,1,1,6.43,6.31A6.38,6.38,0,0,1,42.32,69.25Zm9,21.48a5.42,5.42,0,1,1,5.37-5.46A5.42,5.42,0,0,1,51.34,90.73Zm-.33-37a6.7,6.7,0,1,1,6.76,6.63A6.7,6.7,0,0,1,51,53.72Zm14.37,52.44A3.15,3.15,0,1,1,68.5,103,3.16,3.16,0,0,1,65.38,106.16Zm7.83-25.67a8.06,8.06,0,1,1,8-8.13A8.05,8.05,0,0,1,73.21,80.49Zm3.12-24.83a5.81,5.81,0,1,1,5.76-5.87A5.82,5.82,0,0,1,76.33,55.66Zm14.46,9.91a6.11,6.11,0,1,1,6-6.16A6.11,6.11,0,0,1,90.79,65.57Z" style="fill:#062d0d"/></g></g></svg>