<svg xmlns="http://www.w3.org/2000/svg" viewBox="0 0 190.91 65.43"><title>Asset 20</title><g id="Layer_2" data-name="Layer 2"><g id="Layer_1-2" data-name="Layer 1"><path d="M46.21,65.43h-27A19.24,19.24,0,0,1,0,46.21v-27A19.23,19.23,0,0,1,19.21,0h27A19.24,19.24,0,0,1,65.43,19.21v27A19.24,19.24,0,0,1,46.21,65.43ZM19.21,4A15.24,15.24,0,0,0,4,19.21v27A15.24,15.24,0,0,0,19.21,61.43h27A15.24,15.24,0,0,0,61.43,46.21v-27A15.24,15.24,0,0,0,46.21,4Z" style="fill:#fff"/><path d="M12.57,62.86a2,2,0,0,1-2-2V44.32a6.48,6.48,0,0,1,6.48-6.48H28.23a2.49,2.49,0,0,0,2.48-2.48V24.79a6.49,6.49,0,0,1,6.48-6.48h11.4a2.48,2.48,0,0,0,2.48-2.48V3.69a2,2,0,1,1,4,0V15.83a6.48,6.48,0,0,1-6.48,6.48H37.19a2.49,2.49,0,0,0-2.48,2.48V35.36a6.48,6.48,0,0,1-6.48,6.48H17.05a2.49,2.49,0,0,0-2.48,2.48V60.86A2,2,0,0,1,12.57,62.86Z" style="fill:#fff"/><path d="M98.79,37.09c0,4.13-3,7.21-11.37,7.21a12,12,0,0,1-9.24-4.41l4.37.49-1.71-3.47a10.78,10.78,0,0,0,6.75,2.63c3.92,0,5.64-.91,5.64-2,0-1.68-2.07-2.07-6.06-3.57s-7.7-3.64-7.7-7.74c0-3.47,4.13-6.83,10.08-6.83a11.37,11.37,0,0,1,9,4.48l-3.68-.63.32,2.8s-3.4-2.45-5.88-2.45-4.2,1.4-4.2,2.63,1.12,2.24,5.21,3.47C94.07,30.82,98.79,32.26,98.79,37.09Z" style="fill:#fff"/><path d="M122.35,24.83l-2.49,2,2.49,2.74-10.15-.11c0,.74,0,1.37,0,1.82-.07,3-.56,7.81,2.31,8,3,.21,2.7-5.18,2.7-5.18l1.75,2.56,2.17-2.42c0,4.06-1,9.7-7.07,9.7-5.43,0-6.58-4.24-6.83-7.49-.1-1.16-.07-3.92,0-7l-5.53-.07L104,26.87,101.84,25l5.49,0c.14-4.27.32-8,.32-8l2.27,3,2.7-2.9s-.14,4-.28,7.88Z" style="fill:#fff"/><path d="M146.32,35.83l-15.61-.07c0,2.83,3.85,4.16,7.18,4.16,2.41,0,5.35-2.41,5.35-2.41l-.91,3.43,3.61-.21s-2.45,3.32-8.44,3.32c-8.75,0-12.11-3.08-12.11-9.34,0-4.9,4.69-9.42,11.76-9.42C142.93,25.29,146.32,29.91,146.32,35.83Zm-6.16-3.15a3.57,3.57,0,0,0-3.81-3.08c-3.61,0-4.17,2.87-4.17,2.87Z" style="fill:#fff"/><path d="M170.86,31a10.06,10.06,0,0,1-6.2,12.57c-4.2,1.36-8.5-.84-10.08-1.79l-.21,9-2.17-2.52L150,50.67l.46-25.84,2.06,2.28L154.93,25l0,2.42a15.44,15.44,0,0,1,3.32-1.26C164.28,24.59,169,25.57,170.86,31Zm-4.69,2.52c-.53-3.32-4.2-3.95-6.72-3.43A20.69,20.69,0,0,0,154.79,32l-.14,5.6c1.54.7,5,2.17,7.21,1.19C162.81,38.38,166.8,37.44,166.17,33.55Z" style="fill:#fff"/><path d="M190.91,38.45c0,4-4.09,5.36-8.54,5.36A11.26,11.26,0,0,1,175.06,41l2.9-.21-.91-3.32s2.91,2.41,5,2.41,3.88.21,3.88-1.61c0-2.73-10.43-.56-10.36-7.56,0-2.66,3.19-5.5,7.53-5.5a9.42,9.42,0,0,1,7.7,3.44l-2.8-.18-.07,2.73a6.45,6.45,0,0,0-4.52-2c-1.47,0-3,0-2.83,1.09C181,33.38,190.91,32.15,190.91,38.45Z" style="fill:#fff"/></g></g></svg>