<svg xmlns="http://www.w3.org/2000/svg" viewBox="0 0 63.03 63.74"><title>my_duo_gray</title><g id="Layer_2" data-name="Layer 2"><g id="Layer_1-2" data-name="Layer 1"><path d="M32,1.29c1.16,3.23,0,24.77,0,24.77l-2.75-3.31L26,26.17l.82-15.75S19.22,26.51,16.1,26.25,6.74,10.31,6.74,10.31L5.88,26.06,3,23.2.39,25.91S1,1.56,2.38.65A5.55,5.55,0,0,1,7.3.5c.83.64,8.91,19.73,8.91,19.73S25.72.77,26.62.65,31.7.5,32,1.29Z" style="fill:gray"/><path d="M59.13,8.85l3-4.36s-.72,12.93-.72,17.21c0,8.3-7.1,9.66-11.35,9.66a34.15,34.15,0,0,1-11.8-2.07l3.69-1-1.92-3.5a23,23,0,0,0,9.43,2.07c1.13,0,4.32-.19,5.72-2.63a38.28,38.28,0,0,1-4.18.41c-8.45,0-12.59-5.82-12.59-13.34,0-2.59.27-5.94.27-5.94l2.1,3.87L43.5,5.35v5.83c0,3.19,1.5,8.38,7.29,8.38.71,0,3.53-.53,5.11-.83.08-4.85.23-14,.23-14Z" style="fill:gray"/><path d="M19.13,52.11c0,6.57-4.53,10.57-9,10.57a9.68,9.68,0,0,1-6-1.7l-.06,2.67L2,60.76l-2,3L.5,41.29l1.83,3,2.26-3,0,2.17c.65-.9,2.07-1.86,5.18-1.74C15.5,41.94,19.13,45.51,19.13,52.11Zm-3.94.16c0-3.63-2.2-6.92-5.45-6.92s-4.59,1.18-5.28,2.11l-.21,9.33c.65.56,2.42,1.65,6,1.65C12.77,58.44,15.19,55.68,15.19,52.27Z" style="fill:#b3b3b3"/><path d="M38.35,47.93l2.32-2.55-.21,17.33L38.35,60l-2.11,2.75,0-4.49c-1.15,1.77-3.44,4.49-6.63,4.49-3.57,0-6.49-3.1-6.49-5.85s.16-11.38.16-11.38l2.42,3.19,2.48-3.19S28,51,27.9,53.63c-.09,2.33.09,4.65,2.33,4.65,2.41,0,4.71-2.14,5.95-3.53l-.06-9.37Z" style="fill:#b3b3b3"/><path d="M63,54.81c0,4.56-3.57,8.25-8.69,8.25-5.64,0-9.36-2.7-9.36-8.16s5-8.52,9.21-8.52C58.93,46.38,63,50.25,63,54.81Zm-4.47,0a4.6,4.6,0,0,0-4.5-4.71,4.75,4.75,0,0,0-4.58,4.77,4.54,4.54,0,0,0,9.08-.06Z" style="fill:#b3b3b3"/></g></g></svg>