<svg xmlns="http://www.w3.org/2000/svg" viewBox="0 0 174.81 68.16"><title>popular_duo_gray</title><g id="Layer_2" data-name="Layer 2"><g id="Layer_1-2" data-name="Layer 1"><path d="M24.62,13.49c-.15,3.87-5.08,8.27-10.6,8.27a16,16,0,0,1-7.89-2.33L5.86,29.77,3,25.63,0,29.88V4.36L3.42,7.82,6.5,4.1,6.39,7.74a9.59,9.59,0,0,1,7.74-3.38C21.42,4.36,24.73,9.62,24.62,13.49Zm-5.72-.71c0-2.07-2.81-3.61-4.88-3.53-4.25.18-6.62,1.61-7.71,2.55L6.2,16.24a27.44,27.44,0,0,0,7.71.75C17.7,16.91,19,14.85,18.9,12.78Z" style="fill:gray"/><path d="M49.54,20.33c0,5.53-4.33,10-10.53,10-6.84,0-11.35-3.27-11.35-9.89s6.05-10.33,11.17-10.33C44.58,10.11,49.54,14.81,49.54,20.33Zm-5.42,0a5.57,5.57,0,0,0-5.45-5.71c-3.6,0-5.56,3.3-5.56,5.78,0,2.86,2.71,5.23,5.79,5.23S44.12,22.51,44.12,20.37Z" style="fill:gray"/><path d="M77.05,16.31A10.79,10.79,0,0,1,70.4,29.8c-4.51,1.47-9.13-.9-10.83-1.91l-.22,9.62L57,34.8l-2.33,2.59.49-27.73,2.21,2.44L60,9.81l0,2.59a17,17,0,0,1,3.57-1.35C70,9.4,75.06,10.45,77.05,16.31ZM72,19c-.56-3.57-4.51-4.25-7.21-3.69a22,22,0,0,0-5,2l-.15,6c1.65.75,5.41,2.33,7.74,1.28C68.41,24.2,72.69,23.19,72,19Z" style="fill:gray"/><path d="M101,12l2.81-3.08-.26,21L101,26.57,98.4,29.92l0-5.45c-1.39,2.14-4.17,5.45-8,5.45-4.32,0-7.86-3.76-7.86-7.11S82.65,9,82.65,9l2.93,3.87,3-3.87s-.19,6.69-.3,9.88c-.11,2.82.11,5.64,2.82,5.64,2.93,0,5.71-2.59,7.21-4.28L98.25,8.91Z" style="fill:gray"/><path d="M116.78,27.32,119.9,30s-8.46,1.16-9.73-.19S110.54,0,110.54,0l2.74,3.46L117,.38,115.69,24.8h4Z" style="fill:gray"/><path d="M147.22,28.37l-3,.91,1.69,2.7s-5.26-.41-5.87-2.21a10.33,10.33,0,0,1-.37-1.73,11.7,11.7,0,0,1-6,2.1c-8.27.49-11-1.69-10.64-6.46.23-3.57,4.85-5.87,10.75-5.87a12.43,12.43,0,0,1,5.48,1.36c-.18-4-1.39-5-4.62-5-3.53,0-8.79,2.59-8.79,2.59l1.46-3.49-4.77.86a19.57,19.57,0,0,1,12.37-5c7.21,0,10,4.36,10,11.2,0,5-1,6.2-.22,6.69A15.51,15.51,0,0,0,147.22,28.37Zm-7.81-3.6c0-.79-.08-1.58-.08-2.33a20.88,20.88,0,0,0-4.85-.38c-2.4.11-4.62.64-4.88,1.84s.11,2.22,4.36,2.33A11.57,11.57,0,0,0,139.41,24.77Z" style="fill:gray"/><path d="M174.81,15.63l-4.06-1.05-1.09,4.25s-1.46-3.31-3.68-3.31c-1.35,0-5.3,1.81-8.49,4.47l-.23,10.94-2.48-2.14-2.29,2.14-.27-21.57,2.49,2.22,3-2.15-.07,4.66c2.66-2,6.57-4.28,10.82-4.28C173.23,9.81,174.81,15.63,174.81,15.63Z" style="fill:gray"/><path d="M73.94,56.53c0,6.57-4.53,10.57-9,10.57a9.66,9.66,0,0,1-6-1.7l-.06,2.67-2.08-2.89-2,3,.49-22.45,1.83,3,2.27-3,0,2.17C60,47,61.44,46,64.54,46.14,70.31,46.36,73.94,49.93,73.94,56.53ZM70,56.69c0-3.63-2.2-6.92-5.46-6.92-3.1,0-4.59,1.18-5.27,2.11l-.22,9.33c.66.56,2.42,1.65,6,1.65C67.58,62.86,70,60.1,70,56.69Z" style="fill:#b3b3b3"/><path d="M93.16,52.35l2.32-2.55-.22,17.34-2.1-2.76-2.11,2.76,0-4.5c-1.15,1.77-3.44,4.5-6.64,4.5-3.56,0-6.48-3.11-6.48-5.86s.16-11.38.16-11.38l2.41,3.19L83,49.9s-.16,5.52-.25,8.15c-.1,2.33.09,4.65,2.32,4.65,2.42,0,4.72-2.14,6-3.53l-.07-9.37Z" style="fill:#b3b3b3"/><path d="M117.83,59.23c0,4.56-3.56,8.25-8.68,8.25-5.64,0-9.36-2.7-9.36-8.16s5-8.52,9.21-8.52A8.79,8.79,0,0,1,117.83,59.23Zm-4.46,0a4.6,4.6,0,0,0-4.5-4.71,4.76,4.76,0,0,0-4.59,4.77,4.55,4.55,0,0,0,9.09-.06Z" style="fill:#b3b3b3"/></g></g></svg>